<svg version="1.1" id="Layer_1" xmlns="http://www.w3.org/2000/svg" xmlns:xlink="http://www.w3.org/1999/xlink" x="0px" y="0px"
	 width="100%" viewBox="0 0 1105 332" enable-background="new 0 0 1105 332" xml:space="preserve">
<path fill="#FEFEFE" opacity="1.000000" stroke="none" 
	d="
M786.000000,333.000000 
	C524.000000,333.000000 262.500000,333.000000 1.000000,333.000000 
	C1.000000,222.333328 1.000000,111.666664 1.000000,1.000000 
	C369.333344,1.000000 737.666687,1.000000 1106.000000,1.000000 
	C1106.000000,111.666664 1106.000000,222.333328 1106.000000,333.000000 
	C999.500000,333.000000 893.000000,333.000000 786.000000,333.000000 
M24.010727,132.972321 
	C23.743523,153.944214 23.476316,174.916107 23.234268,196.743851 
	C24.746874,223.464127 45.099007,242.872955 71.840866,242.961853 
	C94.317665,243.036575 116.794998,243.011703 139.271942,242.961258 
	C150.661118,242.935699 160.861786,239.328003 169.639511,232.068848 
	C186.067154,218.483246 189.234833,200.481598 186.918365,179.633972 
	C186.910767,167.790421 186.903168,155.946884 186.966187,143.149872 
	C186.311371,132.754395 186.862885,122.104294 184.734192,112.019936 
	C181.045319,94.544380 160.323715,79.071671 142.525116,79.008698 
	C118.890549,78.925072 95.238853,79.512733 71.626144,78.785400 
	C53.844852,78.237686 33.347725,90.411804 26.597145,108.983459 
	C23.889109,116.433609 21.573593,124.044342 24.010727,132.972321 
M1049.713867,180.227890 
	C1048.658203,186.230957 1048.315796,192.481995 1046.340332,198.165329 
	C1044.471313,203.542236 1039.350708,205.524521 1033.671753,204.939545 
	C1028.191772,204.375046 1024.885498,200.955933 1023.764343,195.805679 
	C1022.995728,192.274979 1022.866272,188.554962 1022.855408,184.918350 
	C1022.812744,170.586136 1023.117188,156.250900 1022.921814,141.921829 
	C1022.791687,132.371033 1016.743530,127.196671 1006.528198,127.141899 
	C996.453125,127.087875 990.113586,132.085739 990.019714,141.194641 
	C989.805237,162.022644 989.611633,182.869965 990.293030,203.680511 
	C990.668518,215.148361 994.202759,225.812531 1006.006653,231.151672 
	C1023.472473,239.051788 1042.871094,231.943527 1051.185181,214.710190 
	C1051.766602,213.505112 1052.478027,212.362839 1053.129028,211.191345 
	C1053.601562,216.180313 1053.466675,220.854446 1052.686890,225.418442 
	C1049.970215,241.321884 1042.218506,248.601395 1026.084351,250.186050 
	C1019.639526,250.819016 1013.110168,250.538895 1006.637085,250.952667 
	C1001.261047,251.296310 996.965149,253.601837 995.328796,259.159332 
	C992.443787,268.957336 997.940918,277.435852 1008.052002,278.912659 
	C1010.027954,279.201202 1012.024780,279.390198 1014.018982,279.503357 
	C1029.425293,280.377319 1044.386475,278.759399 1057.582275,269.970337 
	C1074.475342,258.718628 1080.865845,241.413437 1081.739014,222.385498 
	C1082.945312,196.103241 1082.558472,169.747116 1082.782959,143.422043 
	C1082.799683,141.449814 1082.853394,139.057526 1081.839478,137.582687 
	C1079.591431,134.312576 1077.250610,130.215744 1073.930176,128.729889 
	C1060.678589,122.800034 1049.713257,130.348373 1049.696899,144.781204 
	C1049.683838,156.280243 1049.716309,167.779358 1049.713867,180.227890 
M246.007553,208.420807 
	C250.179703,216.959381 255.647064,224.393112 264.231659,228.973526 
	C287.301697,241.282837 314.213684,232.013519 325.077972,207.487335 
	C336.221283,182.331345 338.621368,155.490845 338.101837,128.383591 
	C337.974609,121.746635 336.103790,114.896675 333.768158,108.615547 
	C331.270416,101.898430 326.991669,100.265533 319.261688,100.940331 
	C312.758423,101.508034 308.304596,104.921631 306.660217,111.184891 
	C305.911133,114.038284 305.806305,117.097801 305.691833,120.074692 
	C305.077423,136.050827 305.061768,152.070648 303.804138,167.993622 
	C303.052856,177.506317 300.759949,186.957397 298.456085,196.261887 
	C297.308136,200.897995 293.422577,203.712448 288.348419,203.758774 
	C283.422211,203.803772 280.149200,200.846451 278.437439,196.614426 
	C276.582123,192.027481 274.586945,187.236725 274.122559,182.393921 
	C272.376587,164.186356 271.210754,145.922714 269.879150,127.676331 
	C269.685486,125.022308 269.802704,122.346916 269.723663,119.682976 
	C269.299194,105.375916 264.437225,100.698517 250.110291,100.786240 
	C237.107651,100.865852 231.776657,106.007103 232.143341,119.008118 
	C232.504715,131.820663 233.024460,144.656479 234.229721,157.410736 
	C235.857635,174.637558 238.363251,191.760101 246.007553,208.420807 
M886.688171,166.583374 
	C886.462585,162.762405 886.489807,158.906342 885.965332,155.126846 
	C884.170410,142.190781 877.669434,132.584503 864.863708,128.704559 
	C847.624817,123.481392 830.332031,124.264854 813.488159,130.648560 
	C805.240356,133.774414 799.800476,139.863815 797.633118,148.603561 
	C796.073059,154.894440 798.307556,160.170761 804.417908,162.314667 
	C815.096619,166.061432 822.923828,165.193039 827.800110,155.273148 
	C828.601868,153.642258 829.579529,152.053024 830.719727,150.641510 
	C834.544678,145.906937 839.816162,145.413467 845.249817,146.348251 
	C850.420715,147.237808 852.711182,151.086121 853.244873,155.931686 
	C853.765320,160.656036 853.899475,165.422928 854.195557,170.050125 
	C847.100708,170.391342 840.763184,170.449188 834.477905,171.052139 
	C822.973511,172.155731 811.683105,174.237747 802.366760,181.833054 
	C792.840027,189.599823 790.551025,200.049500 792.498962,211.540573 
	C794.441589,223.000809 802.106995,229.421768 812.944763,232.215546 
	C827.888184,236.067673 841.618530,233.638123 853.998718,223.132553 
	C854.172852,229.954636 858.805054,231.189728 863.895874,231.738022 
	C866.042175,231.969162 868.218079,231.988663 870.380737,231.993271 
	C882.568787,232.019302 887.206482,227.280884 887.091980,215.025940 
	C886.944153,199.204819 886.821594,183.383453 886.688171,166.583374 
M681.525513,222.627869 
	C684.057190,225.333679 686.088745,229.181229 689.207275,230.547424 
	C702.628418,236.426971 713.876648,228.704727 713.881958,214.139679 
	C713.887451,198.978500 713.832886,183.817245 713.872986,168.656189 
	C713.897766,159.270645 720.403748,152.949417 729.924255,152.909210 
	C737.134949,152.878754 741.101807,156.254776 741.953674,163.449265 
	C742.324646,166.581848 742.377808,169.767181 742.363586,172.927628 
	C742.299011,187.256165 742.053162,201.584595 742.086243,215.912582 
	C742.105652,224.342789 745.548340,229.183823 752.319214,231.156097 
	C765.720154,235.059631 774.879211,228.295334 774.887634,214.378006 
	C774.897644,197.884827 774.949829,181.389038 774.669434,164.899719 
	C774.573669,159.270767 773.987000,153.560196 772.816895,148.058716 
	C770.573486,137.510757 765.266052,129.312378 753.958984,126.454086 
	C738.984680,122.668747 723.164429,128.731537 714.634399,141.615829 
	C713.978699,142.606140 713.258423,143.553680 711.972595,145.355927 
	C711.972595,141.745300 711.904541,139.265900 711.987671,136.791565 
	C712.131836,132.499146 709.864502,129.996979 706.098511,128.507233 
	C691.277100,122.644142 680.390686,130.175522 680.492920,145.962723 
	C680.637573,168.285965 680.504333,190.610901 680.561890,212.934952 
	C680.569580,215.918167 680.997803,218.900314 681.525513,222.627869 
M656.931824,148.686737 
	C651.052429,136.336609 641.274292,128.859604 627.849182,126.963394 
	C620.338806,125.902603 612.545166,125.565002 605.003967,126.258934 
	C586.376770,127.973015 573.758057,139.109222 568.909790,157.149780 
	C565.028625,171.591934 564.992615,186.181824 568.337158,200.672531 
	C572.119507,217.059464 581.678345,228.369263 598.531616,232.388397 
	C609.724243,235.057602 620.991150,235.037979 632.144470,232.027878 
	C644.566040,228.675491 653.545959,220.977524 657.802917,208.935959 
	C664.798828,189.146790 664.806763,169.169479 656.931824,148.686737 
M414.660522,221.755020 
	C418.508026,224.546432 421.976013,228.371002 426.269531,229.948303 
	C443.766876,236.376312 461.584320,235.996262 479.021759,229.694763 
	C489.052765,226.069763 495.649109,218.530548 497.451904,207.837219 
	C500.737152,188.350342 494.842743,176.719955 475.300049,172.047104 
	C471.585846,171.158997 467.752289,170.777878 464.023132,169.942581 
	C458.365021,168.675262 452.603760,167.628677 447.163696,165.704239 
	C442.912689,164.200409 440.846558,160.440643 441.158173,155.743912 
	C441.419647,151.803741 443.534515,149.285706 447.292938,148.149185 
	C456.158447,145.468292 463.568268,147.787598 469.325043,154.999557 
	C470.258362,156.168823 471.175171,157.380295 472.270630,158.386002 
	C476.481934,162.252258 485.419189,162.560104 490.518555,159.094177 
	C495.198975,155.913025 496.475555,150.254440 493.969910,143.896149 
	C491.317047,137.164261 486.417755,132.736145 479.883057,129.874252 
	C471.109589,126.031929 461.778076,125.081459 452.485901,125.775154 
	C444.116455,126.399971 435.491425,127.439392 427.630371,130.170456 
	C414.661713,134.675949 409.263153,145.256470 410.007843,160.969543 
	C410.605469,173.579742 417.261261,182.040009 430.008026,185.914993 
	C434.443726,187.263443 439.086609,187.914993 443.597168,189.036407 
	C449.378265,190.473694 455.276154,191.648773 460.831757,193.719971 
	C465.260712,195.371140 467.316742,199.381287 466.855438,204.201828 
	C466.389709,209.068832 463.010101,211.214737 458.655731,212.378998 
	C447.715454,215.304214 441.503784,213.154694 435.071350,204.096359 
	C430.432861,197.564270 422.228149,195.749756 415.317841,199.727753 
	C409.588898,203.025681 408.353912,208.952377 411.829712,216.826248 
	C412.495514,218.334442 413.408966,219.733337 414.660522,221.755020 
M978.218750,146.695557 
	C978.365417,145.207779 978.678284,143.714813 978.632141,142.233032 
	C978.274597,130.750580 970.880859,123.949188 960.495056,125.471359 
	C952.606567,126.627518 947.131653,131.211807 943.538818,138.013306 
	C941.446106,141.974960 940.017639,146.287506 937.948425,151.264267 
	C937.948425,146.540024 938.580505,142.571182 937.761597,138.928543 
	C937.018127,135.621704 935.477783,131.583969 932.932861,129.750000 
	C922.022705,121.887688 908.020935,128.952988 907.214844,142.317825 
	C907.134766,143.645340 907.185486,144.981094 907.185425,146.313034 
	C907.183777,168.459030 907.157898,190.605072 907.215942,212.750916 
	C907.223328,215.560120 907.436584,218.413818 907.968445,221.166931 
	C908.970825,226.356110 912.203735,229.612411 917.301636,231.126251 
	C930.807373,235.136871 939.761963,228.509506 939.691528,214.433212 
	C939.634888,203.111420 939.345337,191.788757 939.437500,180.468750 
	C939.565247,164.777084 949.388550,156.895493 964.542725,160.393036 
	C969.210876,161.470413 972.532410,159.957291 974.747314,156.262695 
	C976.327637,153.626541 977.004761,150.448898 978.218750,146.695557 
M532.503540,127.151268 
	C520.851624,128.298721 516.595215,132.858383 516.505859,144.416122 
	C516.474915,148.409500 516.651794,152.404037 516.672485,156.398361 
	C516.775879,176.371307 516.805237,196.344788 516.975342,216.317108 
	C517.044373,224.414551 520.416504,229.187332 527.001831,231.131241 
	C539.775513,234.901855 548.651794,228.561905 548.750305,215.288086 
	C548.925659,191.654221 548.947876,168.018692 548.916260,144.384018 
	C548.901062,133.044540 544.684814,128.526077 532.503540,127.151268 
M390.317047,137.604599 
	C387.498322,129.718658 381.129944,126.113373 372.210114,127.353867 
	C363.616058,128.549042 359.215973,133.313614 358.913025,141.972336 
	C358.773499,145.961258 358.899078,149.959579 358.909424,153.953629 
	C358.962433,174.425583 358.965546,194.897873 359.095123,215.369354 
	C359.151306,224.249466 362.427277,229.115433 369.299561,231.136536 
	C382.085052,234.896698 390.905090,228.487488 390.958160,215.249420 
	C391.052246,191.781784 391.057190,168.313736 391.058929,144.845871 
	C391.059082,142.695175 390.766632,140.544464 390.317047,137.604599 
M550.385071,89.420799 
	C547.593201,87.255219 545.079590,83.947800 541.946045,83.184166 
	C536.891174,81.952286 531.373352,81.793663 526.149292,82.266518 
	C517.224976,83.074303 513.126526,87.959198 512.856018,96.705559 
	C512.540161,106.921288 515.932312,111.747208 525.385986,113.197075 
	C529.907593,113.890526 534.703979,113.913506 539.227112,113.240295 
	C548.489746,111.861679 552.122253,107.259315 551.982788,97.933090 
	C551.943665,95.315445 551.216797,92.708076 550.385071,89.420799 
M391.372620,87.281128 
	C383.553802,79.922432 374.179596,81.153740 365.019653,83.054367 
	C357.734894,84.565903 354.816833,89.794144 355.004059,98.685646 
	C355.170563,106.592651 358.535065,111.810051 365.625244,112.805977 
	C371.610504,113.646706 377.875153,113.505630 383.895630,112.788010 
	C389.256104,112.149048 393.342987,108.375313 393.671417,102.900017 
	C393.968292,97.950600 392.520508,92.896538 391.372620,87.281128 
z"/>
<path fill="#020203" opacity="1.000000" stroke="none" 
	d="
M186.494247,180.581894 
	C189.234833,200.481598 186.067154,218.483246 169.639511,232.068848 
	C160.861786,239.328003 150.661118,242.935699 139.271942,242.961258 
	C116.794998,243.011703 94.317665,243.036575 71.840866,242.961853 
	C45.099007,242.872955 24.746874,223.464127 23.424286,196.028229 
	C25.773251,181.716202 35.043415,172.344055 48.630459,170.643463 
	C59.039429,169.340652 69.517738,168.596222 79.961609,167.566971 
	C104.827705,165.116409 129.693436,162.661942 154.555511,160.171066 
	C163.125290,159.312485 171.080154,161.146027 177.166443,167.237839 
	C180.943665,171.018494 183.429031,176.089859 186.494247,180.581894 
M56.182278,221.354294 
	C57.606365,223.385147 59.030453,225.416016 61.044846,228.288696 
	C68.043396,220.973679 73.627129,215.061905 79.297729,209.234680 
	C83.707283,204.703354 88.473038,200.486526 92.535629,195.670319 
	C93.674561,194.320129 92.885681,191.343781 92.981102,189.113358 
	C90.738846,189.197723 88.479897,189.155029 86.264801,189.446075 
	C85.623352,189.530334 85.110504,190.574661 84.533936,191.174271 
	C77.089973,198.915482 69.645142,206.655869 61.858143,214.752457 
	C57.895271,210.596649 54.786171,207.356628 51.701019,204.093948 
	C49.466579,201.730927 46.889187,200.689575 44.369366,203.288956 
	C41.827534,205.911072 43.124321,208.426651 45.401443,210.652664 
	C48.851902,214.025635 52.245678,217.456589 56.182278,221.354294 
z"/>
<path fill="#030304" opacity="1.000000" stroke="none" 
	d="
M1049.721191,179.753159 
	C1049.716309,167.779358 1049.683838,156.280243 1049.696899,144.781204 
	C1049.713257,130.348373 1060.678589,122.800034 1073.930176,128.729889 
	C1077.250610,130.215744 1079.591431,134.312576 1081.839478,137.582687 
	C1082.853394,139.057526 1082.799683,141.449814 1082.782959,143.422043 
	C1082.558472,169.747116 1082.945312,196.103241 1081.739014,222.385498 
	C1080.865845,241.413437 1074.475342,258.718628 1057.582275,269.970337 
	C1044.386475,278.759399 1029.425293,280.377319 1014.018982,279.503357 
	C1012.024780,279.390198 1010.027954,279.201202 1008.052002,278.912659 
	C997.940918,277.435852 992.443787,268.957336 995.328796,259.159332 
	C996.965149,253.601837 1001.261047,251.296310 1006.637085,250.952667 
	C1013.110168,250.538895 1019.639526,250.819016 1026.084351,250.186050 
	C1042.218506,248.601395 1049.970215,241.321884 1052.686890,225.418442 
	C1053.466675,220.854446 1053.601562,216.180313 1053.129028,211.191345 
	C1052.478027,212.362839 1051.766602,213.505112 1051.185181,214.710190 
	C1042.871094,231.943527 1023.472473,239.051788 1006.006653,231.151672 
	C994.202759,225.812531 990.668518,215.148361 990.293030,203.680511 
	C989.611633,182.869965 989.805237,162.022644 990.019714,141.194641 
	C990.113586,132.085739 996.453125,127.087875 1006.528198,127.141899 
	C1016.743530,127.196671 1022.791687,132.371033 1022.921814,141.921829 
	C1023.117188,156.250900 1022.812744,170.586136 1022.855408,184.918350 
	C1022.866272,188.554962 1022.995728,192.274979 1023.764343,195.805679 
	C1024.885498,200.955933 1028.191772,204.375046 1033.671753,204.939545 
	C1039.350708,205.524521 1044.471313,203.542236 1046.340332,198.165329 
	C1048.315796,192.481995 1048.658203,186.230957 1049.721191,179.753159 
z"/>
<path fill="#030304" opacity="1.000000" stroke="none" 
	d="
M245.873489,208.068375 
	C238.363251,191.760101 235.857635,174.637558 234.229721,157.410736 
	C233.024460,144.656479 232.504715,131.820663 232.143341,119.008118 
	C231.776657,106.007103 237.107651,100.865852 250.110291,100.786240 
	C264.437225,100.698517 269.299194,105.375916 269.723663,119.682976 
	C269.802704,122.346916 269.685486,125.022308 269.879150,127.676331 
	C271.210754,145.922714 272.376587,164.186356 274.122559,182.393921 
	C274.586945,187.236725 276.582123,192.027481 278.437439,196.614426 
	C280.149200,200.846451 283.422211,203.803772 288.348419,203.758774 
	C293.422577,203.712448 297.308136,200.897995 298.456085,196.261887 
	C300.759949,186.957397 303.052856,177.506317 303.804138,167.993622 
	C305.061768,152.070648 305.077423,136.050827 305.691833,120.074692 
	C305.806305,117.097801 305.911133,114.038284 306.660217,111.184891 
	C308.304596,104.921631 312.758423,101.508034 319.261688,100.940331 
	C326.991669,100.265533 331.270416,101.898430 333.768158,108.615547 
	C336.103790,114.896675 337.974609,121.746635 338.101837,128.383591 
	C338.621368,155.490845 336.221283,182.331345 325.077972,207.487335 
	C314.213684,232.013519 287.301697,241.282837 264.231659,228.973526 
	C255.647064,224.393112 250.179703,216.959381 245.873489,208.068375 
z"/>
<path fill="#9B82F4" opacity="1.000000" stroke="none" 
	d="
M186.706299,180.107941 
	C183.429031,176.089859 180.943665,171.018494 177.166443,167.237839 
	C171.080154,161.146027 163.125290,159.312485 154.555511,160.171066 
	C129.693436,162.661942 104.827705,165.116409 79.961609,167.566971 
	C69.517738,168.596222 59.039429,169.340652 48.630459,170.643463 
	C35.043415,172.344055 25.773251,181.716202 23.411709,195.600311 
	C23.476316,174.916107 23.743523,153.944214 24.263357,132.299774 
	C31.660448,116.676025 40.117813,111.185616 55.808437,112.144058 
	C67.235489,112.842056 78.629768,114.125641 90.025314,115.279922 
	C111.319054,117.436829 132.560822,120.400642 153.905014,121.669365 
	C169.964767,122.623970 181.125336,128.926147 186.895554,144.103333 
	C186.903168,155.946884 186.910767,167.790421 186.706299,180.107941 
z"/>
<path fill="#040405" opacity="1.000000" stroke="none" 
	d="
M886.688171,167.072784 
	C886.821594,183.383453 886.944153,199.204819 887.091980,215.025940 
	C887.206482,227.280884 882.568787,232.019302 870.380737,231.993271 
	C868.218079,231.988663 866.042175,231.969162 863.895874,231.738022 
	C858.805054,231.189728 854.172852,229.954636 853.998718,223.132553 
	C841.618530,233.638123 827.888184,236.067673 812.944763,232.215546 
	C802.106995,229.421768 794.441589,223.000809 792.498962,211.540573 
	C790.551025,200.049500 792.840027,189.599823 802.366760,181.833054 
	C811.683105,174.237747 822.973511,172.155731 834.477905,171.052139 
	C840.763184,170.449188 847.100708,170.391342 854.195557,170.050125 
	C853.899475,165.422928 853.765320,160.656036 853.244873,155.931686 
	C852.711182,151.086121 850.420715,147.237808 845.249817,146.348251 
	C839.816162,145.413467 834.544678,145.906937 830.719727,150.641510 
	C829.579529,152.053024 828.601868,153.642258 827.800110,155.273148 
	C822.923828,165.193039 815.096619,166.061432 804.417908,162.314667 
	C798.307556,160.170761 796.073059,154.894440 797.633118,148.603561 
	C799.800476,139.863815 805.240356,133.774414 813.488159,130.648560 
	C830.332031,124.264854 847.624817,123.481392 864.863708,128.704559 
	C877.669434,132.584503 884.170410,142.190781 885.965332,155.126846 
	C886.489807,158.906342 886.462585,162.762405 886.688171,167.072784 
M826.112488,209.526718 
	C831.320435,213.267517 837.088806,213.051193 842.781311,211.370316 
	C853.622437,208.169144 857.235168,199.318939 853.273254,184.822861 
	C845.761658,186.209045 837.899902,186.814087 830.628906,189.210983 
	C821.063293,192.364365 819.268372,200.902847 826.112488,209.526718 
z"/>
<path fill="#040405" opacity="1.000000" stroke="none" 
	d="
M681.378357,222.255402 
	C680.997803,218.900314 680.569580,215.918167 680.561890,212.934952 
	C680.504333,190.610901 680.637573,168.285965 680.492920,145.962723 
	C680.390686,130.175522 691.277100,122.644142 706.098511,128.507233 
	C709.864502,129.996979 712.131836,132.499146 711.987671,136.791565 
	C711.904541,139.265900 711.972595,141.745300 711.972595,145.355927 
	C713.258423,143.553680 713.978699,142.606140 714.634399,141.615829 
	C723.164429,128.731537 738.984680,122.668747 753.958984,126.454086 
	C765.266052,129.312378 770.573486,137.510757 772.816895,148.058716 
	C773.987000,153.560196 774.573669,159.270767 774.669434,164.899719 
	C774.949829,181.389038 774.897644,197.884827 774.887634,214.378006 
	C774.879211,228.295334 765.720154,235.059631 752.319214,231.156097 
	C745.548340,229.183823 742.105652,224.342789 742.086243,215.912582 
	C742.053162,201.584595 742.299011,187.256165 742.363586,172.927628 
	C742.377808,169.767181 742.324646,166.581848 741.953674,163.449265 
	C741.101807,156.254776 737.134949,152.878754 729.924255,152.909210 
	C720.403748,152.949417 713.897766,159.270645 713.872986,168.656189 
	C713.832886,183.817245 713.887451,198.978500 713.881958,214.139679 
	C713.876648,228.704727 702.628418,236.426971 689.207275,230.547424 
	C686.088745,229.181229 684.057190,225.333679 681.378357,222.255402 
z"/>
<path fill="#030304" opacity="1.000000" stroke="none" 
	d="
M657.051331,149.045807 
	C664.806763,169.169479 664.798828,189.146790 657.802917,208.935959 
	C653.545959,220.977524 644.566040,228.675491 632.144470,232.027878 
	C620.991150,235.037979 609.724243,235.057602 598.531616,232.388397 
	C581.678345,228.369263 572.119507,217.059464 568.337158,200.672531 
	C564.992615,186.181824 565.028625,171.591934 568.909790,157.149780 
	C573.758057,139.109222 586.376770,127.973015 605.003967,126.258934 
	C612.545166,125.565002 620.338806,125.902603 627.849182,126.963394 
	C641.274292,128.859604 651.052429,136.336609 657.051331,149.045807 
M598.647034,174.081543 
	C599.494934,183.138779 599.646912,192.334686 601.415222,201.208511 
	C602.781006,208.062302 608.039001,211.058411 614.647888,211.061569 
	C621.024902,211.064621 625.472290,208.154770 627.445129,201.306839 
	C631.582397,186.946320 631.479980,172.370850 627.582214,157.985214 
	C625.871521,151.671494 621.279785,148.854019 614.918274,148.787949 
	C607.853455,148.714569 603.117737,151.490952 601.211731,158.000504 
	C599.781311,162.885590 599.494324,168.105453 598.647034,174.081543 
z"/>
<path fill="#030304" opacity="1.000000" stroke="none" 
	d="
M414.434326,221.468842 
	C413.408966,219.733337 412.495514,218.334442 411.829712,216.826248 
	C408.353912,208.952377 409.588898,203.025681 415.317841,199.727753 
	C422.228149,195.749756 430.432861,197.564270 435.071350,204.096359 
	C441.503784,213.154694 447.715454,215.304214 458.655731,212.378998 
	C463.010101,211.214737 466.389709,209.068832 466.855438,204.201828 
	C467.316742,199.381287 465.260712,195.371140 460.831757,193.719971 
	C455.276154,191.648773 449.378265,190.473694 443.597168,189.036407 
	C439.086609,187.914993 434.443726,187.263443 430.008026,185.914993 
	C417.261261,182.040009 410.605469,173.579742 410.007843,160.969543 
	C409.263153,145.256470 414.661713,134.675949 427.630371,130.170456 
	C435.491425,127.439392 444.116455,126.399971 452.485901,125.775154 
	C461.778076,125.081459 471.109589,126.031929 479.883057,129.874252 
	C486.417755,132.736145 491.317047,137.164261 493.969910,143.896149 
	C496.475555,150.254440 495.198975,155.913025 490.518555,159.094177 
	C485.419189,162.560104 476.481934,162.252258 472.270630,158.386002 
	C471.175171,157.380295 470.258362,156.168823 469.325043,154.999557 
	C463.568268,147.787598 456.158447,145.468292 447.292938,148.149185 
	C443.534515,149.285706 441.419647,151.803741 441.158173,155.743912 
	C440.846558,160.440643 442.912689,164.200409 447.163696,165.704239 
	C452.603760,167.628677 458.365021,168.675262 464.023132,169.942581 
	C467.752289,170.777878 471.585846,171.158997 475.300049,172.047104 
	C494.842743,176.719955 500.737152,188.350342 497.451904,207.837219 
	C495.649109,218.530548 489.052765,226.069763 479.021759,229.694763 
	C461.584320,235.996262 443.766876,236.376312 426.269531,229.948303 
	C421.976013,228.371002 418.508026,224.546432 414.434326,221.468842 
z"/>
<path fill="#FAE6A4" opacity="1.000000" stroke="none" 
	d="
M186.930878,143.626602 
	C181.125336,128.926147 169.964767,122.623970 153.905014,121.669365 
	C132.560822,120.400642 111.319054,117.436829 90.025314,115.279922 
	C78.629768,114.125641 67.235489,112.842056 55.808437,112.144058 
	C40.117813,111.185616 31.660448,116.676025 24.263985,131.875519 
	C21.573593,124.044342 23.889109,116.433609 26.597145,108.983459 
	C33.347725,90.411804 53.844852,78.237686 71.626144,78.785400 
	C95.238853,79.512733 118.890549,78.925072 142.525116,79.008698 
	C160.323715,79.071671 181.045319,94.544380 184.734192,112.019936 
	C186.862885,122.104294 186.311371,132.754395 186.930878,143.626602 
z"/>
<path fill="#040405" opacity="1.000000" stroke="none" 
	d="
M978.151855,147.104218 
	C977.004761,150.448898 976.327637,153.626541 974.747314,156.262695 
	C972.532410,159.957291 969.210876,161.470413 964.542725,160.393036 
	C949.388550,156.895493 939.565247,164.777084 939.437500,180.468750 
	C939.345337,191.788757 939.634888,203.111420 939.691528,214.433212 
	C939.761963,228.509506 930.807373,235.136871 917.301636,231.126251 
	C912.203735,229.612411 908.970825,226.356110 907.968445,221.166931 
	C907.436584,218.413818 907.223328,215.560120 907.215942,212.750916 
	C907.157898,190.605072 907.183777,168.459030 907.185425,146.313034 
	C907.185486,144.981094 907.134766,143.645340 907.214844,142.317825 
	C908.020935,128.952988 922.022705,121.887688 932.932861,129.750000 
	C935.477783,131.583969 937.018127,135.621704 937.761597,138.928543 
	C938.580505,142.571182 937.948425,146.540024 937.948425,151.264267 
	C940.017639,146.287506 941.446106,141.974960 943.538818,138.013306 
	C947.131653,131.211807 952.606567,126.627518 960.495056,125.471359 
	C970.880859,123.949188 978.274597,130.750580 978.632141,142.233032 
	C978.678284,143.714813 978.365417,145.207779 978.151855,147.104218 
z"/>
<path fill="#030304" opacity="1.000000" stroke="none" 
	d="
M532.927612,127.164948 
	C544.684814,128.526077 548.901062,133.044540 548.916260,144.384018 
	C548.947876,168.018692 548.925659,191.654221 548.750305,215.288086 
	C548.651794,228.561905 539.775513,234.901855 527.001831,231.131241 
	C520.416504,229.187332 517.044373,224.414551 516.975342,216.317108 
	C516.805237,196.344788 516.775879,176.371307 516.672485,156.398361 
	C516.651794,152.404037 516.474915,148.409500 516.505859,144.416122 
	C516.595215,132.858383 520.851624,128.298721 532.927612,127.164948 
z"/>
<path fill="#030304" opacity="1.000000" stroke="none" 
	d="
M390.463562,137.999176 
	C390.766632,140.544464 391.059082,142.695175 391.058929,144.845871 
	C391.057190,168.313736 391.052246,191.781784 390.958160,215.249420 
	C390.905090,228.487488 382.085052,234.896698 369.299561,231.136536 
	C362.427277,229.115433 359.151306,224.249466 359.095123,215.369354 
	C358.965546,194.897873 358.962433,174.425583 358.909424,153.953629 
	C358.899078,149.959579 358.773499,145.961258 358.913025,141.972336 
	C359.215973,133.313614 363.616058,128.549042 372.210114,127.353867 
	C381.129944,126.113373 387.498322,129.718658 390.463562,137.999176 
z"/>
<path fill="#040405" opacity="1.000000" stroke="none" 
	d="
M550.595215,89.758400 
	C551.216797,92.708076 551.943665,95.315445 551.982788,97.933090 
	C552.122253,107.259315 548.489746,111.861679 539.227112,113.240295 
	C534.703979,113.913506 529.907593,113.890526 525.385986,113.197075 
	C515.932312,111.747208 512.540161,106.921288 512.856018,96.705559 
	C513.126526,87.959198 517.224976,83.074303 526.149292,82.266518 
	C531.373352,81.793663 536.891174,81.952286 541.946045,83.184166 
	C545.079590,83.947800 547.593201,87.255219 550.595215,89.758400 
z"/>
<path fill="#040405" opacity="1.000000" stroke="none" 
	d="
M391.607361,87.584869 
	C392.520508,92.896538 393.968292,97.950600 393.671417,102.900017 
	C393.342987,108.375313 389.256104,112.149048 383.895630,112.788010 
	C377.875153,113.505630 371.610504,113.646706 365.625244,112.805977 
	C358.535065,111.810051 355.170563,106.592651 355.004059,98.685646 
	C354.816833,89.794144 357.734894,84.565903 365.019653,83.054367 
	C374.179596,81.153740 383.553802,79.922432 391.607361,87.584869 
z"/>
<path fill="#EFEFEF" opacity="1.000000" stroke="none" 
	d="
M55.922909,221.108612 
	C52.245678,217.456589 48.851902,214.025635 45.401443,210.652664 
	C43.124321,208.426651 41.827534,205.911072 44.369366,203.288956 
	C46.889187,200.689575 49.466579,201.730927 51.701019,204.093948 
	C54.786171,207.356628 57.895271,210.596649 61.858143,214.752457 
	C69.645142,206.655869 77.089973,198.915482 84.533936,191.174271 
	C85.110504,190.574661 85.623352,189.530334 86.264801,189.446075 
	C88.479897,189.155029 90.738846,189.197723 92.981102,189.113358 
	C92.885681,191.343781 93.674561,194.320129 92.535629,195.670319 
	C88.473038,200.486526 83.707283,204.703354 79.297729,209.234680 
	C73.627129,215.061905 68.043396,220.973679 61.044846,228.288696 
	C59.030453,225.416016 57.606365,223.385147 55.922909,221.108612 
z"/>
<path fill="#FCFCFC" opacity="1.000000" stroke="none" 
	d="
M825.824158,209.267792 
	C819.268372,200.902847 821.063293,192.364365 830.628906,189.210983 
	C837.899902,186.814087 845.761658,186.209045 853.273254,184.822861 
	C857.235168,199.318939 853.622437,208.169144 842.781311,211.370316 
	C837.088806,213.051193 831.320435,213.267517 825.824158,209.267792 
z"/>
<path fill="#FDFDFD" opacity="1.000000" stroke="none" 
	d="
M598.672668,173.628906 
	C599.494324,168.105453 599.781311,162.885590 601.211731,158.000504 
	C603.117737,151.490952 607.853455,148.714569 614.918274,148.787949 
	C621.279785,148.854019 625.871521,151.671494 627.582214,157.985214 
	C631.479980,172.370850 631.582397,186.946320 627.445129,201.306839 
	C625.472290,208.154770 621.024902,211.064621 614.647888,211.061569 
	C608.039001,211.058411 602.781006,208.062302 601.415222,201.208511 
	C599.646912,192.334686 599.494934,183.138779 598.672668,173.628906 
z"/>
</svg>